<?xml version="1.0" encoding="UTF-8" standalone="no"?>
<svg
   xmlns:dc="http://purl.org/dc/elements/1.1/"
   xmlns:cc="http://creativecommons.org/ns#"
   xmlns:rdf="http://www.w3.org/1999/02/22-rdf-syntax-ns#"
   xmlns:svg="http://www.w3.org/2000/svg"
   xmlns="http://www.w3.org/2000/svg"
   id="svg160"
   viewBox="0 0 4120.5707 4120.5708"
   style="clip-rule:evenodd;fill-rule:evenodd;image-rendering:optimizeQuality;shape-rendering:geometricPrecision;text-rendering:geometricPrecision"
   version="1.1"
   height="128"
   width="128"
   xml:space="preserve"><metadata
   id="metadata164"><rdf:RDF><cc:Work
       rdf:about=""><dc:format>image/svg+xml</dc:format><dc:type
         rdf:resource="http://purl.org/dc/dcmitype/StillImage" /><dc:title></dc:title></cc:Work></rdf:RDF></metadata>
 <defs
   id="defs38">
  <style
   id="style2"
   type="text/css">
   <![CDATA[
    .fil2 {fill:none}
    .fil4 {fill:#434242}
    .fil3 {fill:black}
    .fil1 {fill:lime;fill-rule:nonzero}
    .fil0 {fill:url(#id0)}
    .fil5 {fill:url(#id1);fill-rule:nonzero}
   ]]>
  </style>
  <linearGradient
   gradientTransform="matrix(0.67796611,0,0,0.67796611,0,-3.8528333)"
   y2="484.01001"
   x2="3096.78"
   y1="5271.0801"
   x1="3096.73"
   gradientUnits="userSpaceOnUse"
   id="id0">
   <stop
   id="stop4"
   style="stop-opacity:1; stop-color:black"
   offset="0" />
   <stop
   id="stop6"
   style="stop-opacity:1; stop-color:#999999"
   offset="1" />
  </linearGradient>
  <linearGradient
   gradientTransform="matrix(0.67796611,0,0,0.67796611,0,-3.8528333)"
   y2="2079.4099"
   x2="5457.8301"
   y1="3416.22"
   x1="747.65997"
   gradientUnits="userSpaceOnUse"
   id="id1">
   <stop
   id="stop9"
   style="stop-opacity:1; stop-color:#B2B3B3"
   offset="0" />
   <stop
   id="stop11"
   style="stop-opacity:1; stop-color:#898989"
   offset="0.0313725" />
   <stop
   id="stop13"
   style="stop-opacity:1; stop-color:#EBECEC"
   offset="0.109804" />
   <stop
   id="stop15"
   style="stop-opacity:1; stop-color:#727271"
   offset="0.2" />
   <stop
   id="stop17"
   style="stop-opacity:1; stop-color:#898989"
   offset="0.278431" />
   <stop
   id="stop19"
   style="stop-opacity:1; stop-color:#B2B3B3"
   offset="0.388235" />
   <stop
   id="stop21"
   style="stop-opacity:1; stop-color:#727271"
   offset="0.458824" />
   <stop
   id="stop23"
   style="stop-opacity:1; stop-color:#FEFEFE"
   offset="0.521569" />
   <stop
   id="stop25"
   style="stop-opacity:1; stop-color:#9D9E9E"
   offset="0.619608" />
   <stop
   id="stop27"
   style="stop-opacity:1; stop-color:#D9DADA"
   offset="0.709804" />
   <stop
   id="stop29"
   style="stop-opacity:1; stop-color:#898989"
   offset="0.780392" />
   <stop
   id="stop31"
   style="stop-opacity:1; stop-color:#DFE0E0"
   offset="0.858824" />
   <stop
   id="stop33"
   style="stop-opacity:1; stop-color:#D9DADA"
   offset="0.94902" />
   <stop
   id="stop35"
   style="stop-opacity:1; stop-color:#FEFEFE"
   offset="1" />
  </linearGradient>
 
  
  
  
  
  
  
  
  
 </defs>
 <path
   class="fil0"
   d="m 1090.3187,3623.8219 h 8.6305 C 1210.4,3496.649 1990.2916,2515.1846 2383.4509,2515.1846 V 1000.0727 C 2203.7899,679.25236 2062.217,479.3201 2062.217,479.3201 c 0,0 -970.3051,1327.0984 -971.8983,3144.5018 z m 2032.461,-268.3661 -62.7458,30.0068 c 0,0 -222.1694,-823.6 -641.1186,-868.2712 V 1064.0591 c 308.0203,562.3187 703.8644,1448.8272 703.8644,2291.3967 z"
   id="path41"
   style="fill:url(#id0);stroke-width:0.67796612" /><path
   class="fil1"
   d="m 2949.6814,3080.4931 c 11.7966,4.2305 21.722,11.8847 29.7695,22.9627 13.0169,17.9254 19.5254,44.0678 19.5254,78.4203 0,6.3119 -0.2237,12.3458 -0.6712,18.1153 -13.8983,-36.8407 -30.1084,-77.2475 -48.6237,-119.4983 z m 103.078,204.1424 v -21.7695 h 58.8949 v -150.4475 h -45.7695 v -16.9627 c 12.1695,-1.7085 22.3051,-3.7356 30.4136,-6.0881 4.7593,-1.3763 9.2542,-2.9695 13.4983,-4.7865 6.2169,66.7729 10.2847,133.5187 12.0203,200.0543 h -69.0508 z m -1663.6136,-800.895 c -22.8339,0 -40.7593,-9.2271 -53.7831,-27.6881 -13.0169,-18.461 -19.5254,-44.7593 -19.5254,-78.9085 0,-34.3593 6.5085,-60.4949 19.5254,-78.4203 13.0238,-17.9254 30.9492,-26.8881 53.7831,-26.8881 22.8339,0 40.7593,8.9694 53.7763,26.8881 13.0169,17.9254 19.5254,44.0678 19.5254,78.4203 0,34.1492 -6.5085,60.4475 -19.5254,78.9085 -13.017,18.461 -30.9424,27.6881 -53.7763,27.6881 z m 0,-21.1322 c 14.2983,0 25.9864,-6.9288 35.0508,-20.8067 9.0712,-13.8712 13.6,-35.4238 13.6,-64.6645 0,-14.7254 -1.1728,-27.3694 -3.5254,-37.9254 -2.3458,-10.5695 -5.7085,-19.322 -10.0813,-26.2508 -4.3729,-6.9356 -9.5526,-12.0136 -15.5255,-15.2136 -5.9729,-3.2 -12.4813,-4.8 -19.5254,-4.8 -7.0441,0 -13.5525,1.6 -19.5254,4.8 -5.9797,3.2 -11.1526,8.2712 -15.5254,15.2136 -4.3797,6.9288 -7.7356,15.6813 -10.0882,26.2508 -2.3457,10.556 -3.5254,23.2068 -3.5254,37.9254 0,29.2407 4.5356,50.7865 13.6136,64.6645 9.0644,13.8711 20.7457,20.8067 35.0508,20.8067 z m 0,-66.2576 c -5.3356,0 -9.9797,-1.8712 -13.9254,-5.6 -3.9526,-3.7356 -5.9255,-9.0237 -5.9255,-15.8441 0,-6.6169 1.9729,-11.7966 5.9255,-15.5254 3.9457,-3.7356 8.5898,-5.6068 13.9254,-5.6068 5.3356,0 9.9729,1.8712 13.9254,5.6068 3.9458,3.7288 5.9254,8.9085 5.9254,15.5254 0,6.8204 -1.9796,12.1085 -5.9254,15.8441 -3.9525,3.7288 -8.5898,5.6 -13.9254,5.6 z m 192.0678,87.3898 c -22.8339,0 -40.7593,-9.2271 -53.7831,-27.6881 -13.0169,-18.461 -19.5254,-44.7593 -19.5254,-78.9085 0,-34.3593 6.5085,-60.4949 19.5254,-78.4203 13.0238,-17.9254 30.9492,-26.8881 53.7831,-26.8881 22.8339,0 40.7593,8.9694 53.7763,26.8881 13.0169,17.9254 19.5254,44.0678 19.5254,78.4203 0,34.1492 -6.5085,60.4475 -19.5254,78.9085 -13.017,18.461 -30.9424,27.6881 -53.7763,27.6881 z m 0,-21.1322 c 14.2983,0 25.9864,-6.9288 35.0508,-20.8067 9.0712,-13.8712 13.6,-35.4238 13.6,-64.6645 0,-14.7254 -1.1728,-27.3694 -3.5254,-37.9254 -2.3458,-10.5695 -5.7085,-19.322 -10.0813,-26.2508 -4.3729,-6.9356 -9.5526,-12.0136 -15.5255,-15.2136 -5.9729,-3.2 -12.4813,-4.8 -19.5254,-4.8 -7.0441,0 -13.5525,1.6 -19.5254,4.8 -5.9797,3.2 -11.1526,8.2712 -15.5254,15.2136 -4.3797,6.9288 -7.7356,15.6813 -10.0882,26.2508 -2.3457,10.556 -3.5254,23.2068 -3.5254,37.9254 0,29.2407 4.5356,50.7865 13.6136,64.6645 9.0644,13.8711 20.7457,20.8067 35.0508,20.8067 z m 0,-66.2576 c -5.3356,0 -9.9797,-1.8712 -13.9254,-5.6 -3.9526,-3.7356 -5.9255,-9.0237 -5.9255,-15.8441 0,-6.6169 1.9729,-11.7966 5.9255,-15.5254 3.9457,-3.7356 8.5898,-5.6068 13.9254,-5.6068 5.3356,0 9.9729,1.8712 13.9254,5.6068 3.9458,3.7288 5.9254,8.9085 5.9254,15.5254 0,6.8204 -1.9796,12.1085 -5.9254,15.8441 -3.9525,3.7288 -8.5898,5.6 -13.9254,5.6 z m 192.0678,87.3898 c -22.8339,0 -40.7593,-9.2271 -53.7831,-27.6881 -13.0169,-18.461 -19.5254,-44.7593 -19.5254,-78.9085 0,-34.3593 6.5085,-60.4949 19.5254,-78.4203 13.0238,-17.9254 30.9492,-26.8881 53.7831,-26.8881 22.8339,0 40.7593,8.9694 53.7763,26.8881 13.0169,17.9254 19.5254,44.0678 19.5254,78.4203 0,34.1492 -6.5085,60.4475 -19.5254,78.9085 -13.017,18.461 -30.9424,27.6881 -53.7763,27.6881 z m 0,-21.1322 c 14.2983,0 25.9864,-6.9288 35.0508,-20.8067 9.0712,-13.8712 13.6,-35.4238 13.6,-64.6645 0,-14.7254 -1.1728,-27.3694 -3.5254,-37.9254 -2.3458,-10.5695 -5.7085,-19.322 -10.0813,-26.2508 -4.3729,-6.9356 -9.5526,-12.0136 -15.5255,-15.2136 -5.9729,-3.2 -12.4813,-4.8 -19.5254,-4.8 -7.0441,0 -13.5525,1.6 -19.5254,4.8 -5.9797,3.2 -11.1526,8.2712 -15.5254,15.2136 -4.3797,6.9288 -7.7356,15.6813 -10.0882,26.2508 -2.3457,10.556 -3.5254,23.2068 -3.5254,37.9254 0,29.2407 4.5356,50.7865 13.6136,64.6645 9.0644,13.8711 20.7457,20.8067 35.0508,20.8067 z m 0,-66.2576 c -5.3356,0 -9.9797,-1.8712 -13.9254,-5.6 -3.9526,-3.7356 -5.9255,-9.0237 -5.9255,-15.8441 0,-6.6169 1.9729,-11.7966 5.9255,-15.5254 3.9457,-3.7356 8.5898,-5.6068 13.9254,-5.6068 5.3356,0 9.9729,1.8712 13.9254,5.6068 3.9458,3.7288 5.9254,8.9085 5.9254,15.5254 0,6.8204 -1.9796,12.1085 -5.9254,15.8441 -3.9525,3.7288 -8.5898,5.6 -13.9254,5.6 z m 127.0847,83.5458 v -21.7695 h 58.8949 v -150.4475 h -45.7694 v -16.9627 c 12.1694,-1.7085 22.305,-3.7356 30.4135,-6.0881 8.1085,-2.3458 15.4644,-5.3288 22.0814,-8.956 h 19.5322 v 182.4543 h 53.4508 v 21.7695 z m 257.0509,3.844 c -22.8339,0 -40.7593,-9.2271 -53.7831,-27.6881 -13.0169,-18.461 -19.5254,-44.7593 -19.5254,-78.9085 0,-34.3593 6.5085,-60.4949 19.5254,-78.4203 13.0238,-17.9254 30.9492,-26.8881 53.7831,-26.8881 22.8339,0 40.7593,8.9694 53.7763,26.8881 13.0169,17.9254 19.5254,44.0678 19.5254,78.4203 0,34.1492 -6.5085,60.4475 -19.5254,78.9085 -13.017,18.461 -30.9424,27.6881 -53.7763,27.6881 z m 0,-21.1322 c 14.2983,0 25.9864,-6.9288 35.0508,-20.8067 9.0712,-13.8712 13.6,-35.4238 13.6,-64.6645 0,-14.7254 -1.1728,-27.3694 -3.5254,-37.9254 -2.3458,-10.5695 -5.7085,-19.322 -10.0813,-26.2508 -4.3729,-6.9356 -9.5526,-12.0136 -15.5255,-15.2136 -5.9729,-3.2 -12.4813,-4.8 -19.5254,-4.8 -7.0441,0 -13.5525,1.6 -19.5254,4.8 -5.9797,3.2 -11.1526,8.2712 -15.5254,15.2136 -4.3797,6.9288 -7.7356,15.6813 -10.0882,26.2508 -2.3457,10.556 -3.5254,23.2068 -3.5254,37.9254 0,29.2407 4.5356,50.7865 13.6136,64.6645 9.0644,13.8711 20.7457,20.8067 35.0508,20.8067 z m 0,-66.2576 c -5.3356,0 -9.9797,-1.8712 -13.9254,-5.6 -3.9526,-3.7356 -5.9255,-9.0237 -5.9255,-15.8441 0,-6.6169 1.9729,-11.7966 5.9255,-15.5254 3.9457,-3.7356 8.5898,-5.6068 13.9254,-5.6068 5.3356,0 9.9729,1.8712 13.9254,5.6068 3.9458,3.7288 5.9254,8.9085 5.9254,15.5254 0,6.8204 -1.9796,12.1085 -5.9254,15.8441 -3.9525,3.7288 -8.5898,5.6 -13.9254,5.6 z m 127.0847,83.5458 v -21.7695 h 58.8949 v -150.4475 h -45.7694 v -16.9627 c 12.1694,-1.7085 22.305,-3.7356 30.4135,-6.0881 8.1085,-2.3458 15.4644,-5.3288 22.0814,-8.956 h 19.5322 v 182.4543 h 13.8034 v 21.7695 z m 134.4136,-21.7695 h 4.1898 v 21.7695 h -4.1898 z m 122.6373,25.6135 c -22.8339,0 -40.7593,-9.2271 -53.7831,-27.6881 -13.0169,-18.461 -19.5254,-44.7593 -19.5254,-78.9085 0,-34.3593 6.5085,-60.4949 19.5254,-78.4203 13.0238,-17.9254 30.9492,-26.8881 53.7831,-26.8881 22.8339,0 40.7593,8.9694 53.7763,26.8881 13.0169,17.9254 19.5254,44.0678 19.5254,78.4203 0,34.1492 -6.5085,60.4475 -19.5254,78.9085 -13.017,18.461 -30.9424,27.6881 -53.7763,27.6881 z m 0,-21.1322 c 14.2983,0 25.9864,-6.9288 35.0508,-20.8067 9.0712,-13.8712 13.6,-35.4238 13.6,-64.6645 0,-14.7254 -1.1728,-27.3694 -3.5254,-37.9254 -2.3458,-10.5695 -5.7085,-19.322 -10.0813,-26.2508 -4.3729,-6.9356 -9.5526,-12.0136 -15.5255,-15.2136 -5.9729,-3.2 -12.4813,-4.8 -19.5254,-4.8 -7.0441,0 -13.5525,1.6 -19.5254,4.8 -5.9797,3.2 -11.1526,8.2712 -15.5254,15.2136 -4.3797,6.9288 -7.7356,15.6813 -10.0882,26.2508 -2.3457,10.556 -3.5254,23.2068 -3.5254,37.9254 0,29.2407 4.5356,50.7865 13.6136,64.6645 9.0644,13.8711 20.7457,20.8067 35.0508,20.8067 z m 0,-66.2576 c -5.3356,0 -9.9797,-1.8712 -13.9254,-5.6 -3.9526,-3.7356 -5.9255,-9.0237 -5.9255,-15.8441 0,-6.6169 1.9729,-11.7966 5.9255,-15.5254 3.9457,-3.7356 8.5898,-5.6068 13.9254,-5.6068 5.3356,0 9.9729,1.8712 13.9254,5.6068 3.9458,3.7288 5.9254,8.9085 5.9254,15.5254 0,6.8204 -1.9796,12.1085 -5.9254,15.8441 -3.9525,3.7288 -8.5898,5.6 -13.9254,5.6 z m 127.0847,83.5458 v -21.7695 h 58.8949 v -150.4475 h -45.7694 v -16.9627 c 12.1694,-1.7085 22.305,-3.7356 30.4135,-6.0881 8.1085,-2.3458 15.4644,-5.3288 22.0814,-8.956 h 19.5322 v 182.4543 h 53.4508 v 21.7695 z m 257.0509,3.844 c -22.8339,0 -40.7593,-9.2271 -53.7831,-27.6881 -13.0169,-18.461 -19.5254,-44.7593 -19.5254,-78.9085 0,-34.3593 6.5085,-60.4949 19.5254,-78.4203 13.0238,-17.9254 30.9492,-26.8881 53.7831,-26.8881 5.6068,0 10.9152,0.5423 15.939,1.6271 2.8203,9.1254 5.6339,18.2644 8.4067,27.4169 -1.5457,-1.1864 -3.1525,-2.2305 -4.8203,-3.1186 -5.9729,-3.2 -12.4813,-4.8 -19.5254,-4.8 -7.0441,0 -13.5526,1.6 -19.5254,4.8 -5.9797,3.2 -11.1526,8.2712 -15.5255,15.2135 -4.3796,6.9288 -7.7356,15.6814 -10.0881,26.2509 -2.3458,10.5559 -3.5254,23.2068 -3.5254,37.9254 0,29.2407 4.5356,50.7864 13.6135,64.6644 9.0644,13.8712 20.7458,20.8068 35.0509,20.8068 14.2983,0 25.9864,-6.9288 35.0508,-20.8068 8.4,-12.8407 12.9017,-32.2508 13.5255,-58.2508 5.105,18 10.1152,36.0406 15.0101,54.1288 -2.7051,6.8068 -5.9796,12.9288 -9.8169,18.3729 -13.017,18.461 -30.9424,27.6881 -53.7763,27.6881 z m 0,-87.3898 c -5.3356,0 -9.9797,-1.8712 -13.9254,-5.6 -3.9526,-3.7356 -5.9255,-9.0237 -5.9255,-15.8441 0,-6.6169 1.9729,-11.7966 5.9255,-15.5254 3.9457,-3.7356 8.5898,-5.6068 13.9254,-5.6068 5.3356,0 9.9729,1.8712 13.9254,5.6068 3.9458,3.7288 5.9254,8.9085 5.9254,15.5254 0,6.8204 -1.9796,12.1085 -5.9254,15.8441 -3.9525,3.7288 -8.5898,5.6 -13.9254,5.6 z m -1728.5967,489.7559 c -20.8271,0 -37.5796,-7.6881 -50.244,-23.0576 1.9932,-13.6271 3.9661,-27.2813 6.0542,-40.8203 2.217,8.7118 5.2678,16.0271 9.139,21.939 9.0644,13.8711 20.7458,20.8067 35.0508,20.8067 14.2984,0 25.9865,-6.9288 35.0509,-20.8067 9.0712,-13.8712 13.6,-35.4238 13.6,-64.6644 0,-14.7255 -1.1729,-27.3695 -3.5254,-37.9255 -2.3458,-10.5695 -5.7085,-19.322 -10.0814,-26.2508 -4.3729,-6.9356 -9.5525,-12.0136 -15.5254,-15.2136 -5.9729,-3.2 -12.4814,-4.8 -19.5254,-4.8 -7.0441,0 -13.5526,1.6 -19.5255,4.8 -1.7017,0.9085 -3.322,1.9729 -4.9017,3.1865 1.5594,-8.8611 3.0984,-17.7356 4.7051,-26.556 6.1153,-1.7084 12.6848,-2.5559 19.7221,-2.5559 22.8339,0 40.7593,8.9695 53.7762,26.8881 13.017,17.9255 19.5255,44.0678 19.5255,78.4204 0,34.1491 -6.5085,60.4474 -19.5255,78.9085 -13.0169,18.461 -30.9423,27.6881 -53.7762,27.6881 z m 0,-87.3898 c -5.3355,0 -9.9796,-1.8712 -13.9254,-5.6 -3.9525,-3.7356 -5.9254,-9.0237 -5.9254,-15.8441 0,-6.6169 1.9729,-11.7966 5.9254,-15.5254 3.9458,-3.7356 8.5899,-5.6068 13.9254,-5.6068 5.3356,0 9.9729,1.8712 13.9255,5.6068 3.9457,3.7288 5.9254,8.9085 5.9254,15.5254 0,6.8204 -1.9797,12.1085 -5.9254,15.8441 -3.9526,3.7288 -8.5899,5.6 -13.9255,5.6 z m 127.0848,83.5458 v -21.7695 h 58.8949 v -150.4475 h -45.7695 v -16.9627 c 12.1695,-1.7085 22.3051,-3.7356 30.4136,-6.0881 8.1085,-2.3458 15.4644,-5.3288 22.0813,-8.956 h 19.5322 v 182.4543 h 53.4509 v 21.7695 z m 192.0678,0 v -21.7695 h 58.8949 v -150.4475 h -45.7695 v -16.9627 c 12.1695,-1.7085 22.3051,-3.7356 30.4136,-6.0881 8.1085,-2.3458 15.4644,-5.3288 22.0813,-8.956 h 19.5322 v 182.4543 h 53.4509 v 21.7695 z m 257.0508,3.844 c -22.8339,0 -40.7593,-9.2271 -53.783,-27.6881 -13.017,-18.461 -19.5254,-44.7593 -19.5254,-78.9085 0,-34.3593 6.5084,-60.4949 19.5254,-78.4203 13.0237,-17.9254 30.9491,-26.8881 53.783,-26.8881 22.8339,0 40.7594,8.9695 53.7763,26.8881 13.017,17.9254 19.5254,44.0678 19.5254,78.4203 0,17.3153 -1.6745,32.6102 -5.0237,45.8916 -22.2305,19.7423 -44.4339,40.0474 -66.5763,60.6983 l -1.7017,0.014 z m 0,-21.1322 c 14.2983,0 25.9865,-6.9288 35.0509,-20.8067 9.0712,-13.8712 13.6,-35.4238 13.6,-64.6644 0,-14.7255 -1.1729,-27.3695 -3.5254,-37.9255 -2.3458,-10.5695 -5.7085,-19.322 -10.0814,-26.2508 -4.3729,-6.9356 -9.5525,-12.0136 -15.5254,-15.2136 -5.9729,-3.2 -12.4814,-4.8 -19.5254,-4.8 -7.0441,0 -13.5526,1.6 -19.5255,4.8 -5.9796,3.2 -11.1525,8.2712 -15.5254,15.2136 -4.3796,6.9288 -7.7356,15.6813 -10.0881,26.2508 -2.3458,10.556 -3.5254,23.2068 -3.5254,37.9255 0,29.2406 4.5356,50.7864 13.6135,64.6644 9.0644,13.8711 20.7458,20.8067 35.0509,20.8067 z m 0,-66.2576 c -5.3355,0 -9.9796,-1.8712 -13.9254,-5.6 -3.9525,-3.7356 -5.9254,-9.0237 -5.9254,-15.8441 0,-6.6169 1.9729,-11.7966 5.9254,-15.5254 3.9458,-3.7356 8.5899,-5.6068 13.9254,-5.6068 5.3356,0 9.9729,1.8712 13.9255,5.6068 3.9457,3.7288 5.9254,8.9085 5.9254,15.5254 0,6.8204 -1.9797,12.1085 -5.9254,15.8441 -3.9526,3.7288 -8.5899,5.6 -13.9255,5.6 z m 185.9797,-72.5085 v -16.1695 h -45.7695 v -16.9627 c 12.1695,-1.7084 22.3051,-3.7356 30.4136,-6.0881 8.1085,-2.3458 15.4644,-5.3288 22.0813,-8.9559 h 19.5322 v 27.6271 c -8.7254,6.7254 -17.4847,13.5864 -26.2576,20.5491 z m 744.7051,-45.7491 c 8.7322,-4.1831 18.6237,-6.2712 29.6475,-6.2712 22.8339,0 40.7593,8.9695 53.7762,26.8881 13.017,17.9255 19.5255,44.0678 19.5255,78.4204 0,11.0101 -0.678,21.2 -2.0272,30.5762 -7.383,-11.0847 -14.9288,-22.0406 -22.6237,-32.8135 -0.1152,-13.7695 -1.2881,-25.6678 -3.5119,-35.6949 -2.3457,-10.5695 -5.7084,-19.3221 -10.0813,-26.2509 -4.3729,-6.9356 -9.5526,-12.0135 -15.5254,-15.2135 -5.9729,-3.2 -12.4814,-4.8 -19.5255,-4.8 -4.9627,0 -9.661,0.7932 -14.0949,2.3864 -5.1322,-5.8508 -10.3118,-11.5864 -15.5457,-17.2407 z m 221.7153,205.6407 c -22.8339,0 -40.7594,-9.2272 -53.7831,-27.6882 -13.0169,-18.461 -19.5254,-44.7593 -19.5254,-78.9084 0,-34.3594 6.5085,-60.495 19.5254,-78.4204 13.0237,-17.9254 30.9492,-26.8881 53.7831,-26.8881 22.8339,0 40.7593,8.9695 53.7762,26.8881 13.017,17.9254 19.5255,44.0678 19.5255,78.4204 0,34.1491 -6.5085,60.4474 -19.5255,78.9084 -13.0169,18.461 -30.9423,27.6882 -53.7762,27.6882 z m 0,-21.1322 c 14.2983,0 25.9864,-6.9289 35.0508,-20.8068 9.0712,-13.8712 13.6,-35.4237 13.6,-64.6644 0,-14.7254 -1.1729,-27.3695 -3.5254,-37.9254 -2.3458,-10.5695 -5.7085,-19.3221 -10.0814,-26.2509 -4.3729,-6.9356 -9.5525,-12.0136 -15.5254,-15.2136 -5.9729,-3.2 -12.4813,-4.8 -19.5254,-4.8 -7.0441,0 -13.5526,1.6 -19.5254,4.8 -5.9797,3.2 -11.1526,8.2712 -15.5255,15.2136 -4.3796,6.9288 -7.7356,15.6814 -10.0881,26.2509 -2.3458,10.5559 -3.5254,23.2067 -3.5254,37.9254 0,29.2407 4.5356,50.7864 13.6135,64.6644 9.0644,13.8712 20.7458,20.8068 35.0509,20.8068 z m 0,-66.2577 c -5.3356,0 -9.9797,-1.8712 -13.9255,-5.6 -3.9525,-3.7356 -5.9254,-9.0237 -5.9254,-15.844 0,-6.617 1.9729,-11.7966 5.9254,-15.5255 3.9458,-3.7356 8.5899,-5.6067 13.9255,-5.6067 5.3356,0 9.9728,1.8711 13.9254,5.6067 3.9457,3.7289 5.9254,8.9085 5.9254,15.5255 0,6.8203 -1.9797,12.1084 -5.9254,15.844 -3.9526,3.7288 -8.5898,5.6 -13.9254,5.6 z m 158.2237,78.6441 c -7.5864,-4.5424 -14.2305,-10.861 -19.939,-18.9491 -13.0169,-18.4611 -19.5254,-44.7594 -19.5254,-78.9085 0,-25.5051 3.5864,-46.4746 10.7593,-62.9221 4.9559,24.7322 9.661,49.4983 14.1356,74.3051 0.7322,16.2916 3.0915,29.8102 7.0847,40.5763 2.5899,15.2881 5.0984,30.5898 7.4848,45.8983 z m -1951.8034,407.2678 v -21.7695 h 58.8949 V 3112.405 h -45.7695 v -16.9628 c 12.1695,-1.7084 22.3051,-3.7355 30.4136,-6.0881 8.1084,-2.3458 15.4644,-5.3288 22.0813,-8.9559 h 19.5322 v 182.4542 h 53.4509 v 21.7695 z m 254.4203,3.8034 c -21.5796,-0.6847 -38.6305,-9.9051 -51.1525,-27.6475 -13.017,-18.461 -19.5255,-44.7593 -19.5255,-78.9084 0,-34.3594 6.5085,-60.495 19.5255,-78.4204 13.0237,-17.9254 30.9491,-26.8881 53.783,-26.8881 22.8339,0 40.7593,8.9695 53.7763,26.8881 13.0169,17.9254 19.5254,44.0678 19.5254,78.4204 0,8.3728 -0.3864,16.2779 -1.1729,23.7084 -12.461,13.6204 -24.7118,27.1255 -36.7728,40.4882 8.8678,-13.8916 13.2949,-35.2814 13.2949,-64.1899 0,-14.7254 -1.1729,-27.3694 -3.5255,-37.9254 -2.3457,-10.5695 -5.7084,-19.322 -10.0813,-26.2508 -4.3729,-6.9356 -9.5525,-12.0136 -15.5254,-15.2136 -5.9729,-3.2 -12.4814,-4.8 -19.5255,-4.8 -7.044,0 -13.5525,1.6 -19.5254,4.8 -5.9796,3.2 -11.1525,8.2712 -15.5254,15.2136 -4.3797,6.9288 -7.7356,15.6813 -10.0881,26.2508 -2.3458,10.556 -3.5255,23.2068 -3.5255,37.9254 0,29.2407 4.5356,50.7865 13.6136,64.6645 9.0644,13.8711 20.7458,20.8067 35.0508,20.8067 8.6034,0 16.2577,-2.5084 22.9628,-7.5322 -8.6441,9.6271 -17.1729,19.1729 -25.5933,28.6238 z m 2.6305,-87.3492 c -5.3356,0 -9.9796,-1.8711 -13.9254,-5.6 -3.9525,-3.7355 -5.9254,-9.0237 -5.9254,-15.844 0,-6.617 1.9729,-11.7966 5.9254,-15.5254 3.9458,-3.7356 8.5898,-5.6068 13.9254,-5.6068 5.3356,0 9.9729,1.8712 13.9254,5.6068 3.9458,3.7288 5.9255,8.9084 5.9255,15.5254 0,6.8203 -1.9797,12.1085 -5.9255,15.844 -3.9525,3.7289 -8.5898,5.6 -13.9254,5.6 z m 120.5153,-47.9118 c 2.7322,-20.6034 8.6508,-37.1797 17.7695,-49.7221 13.0237,-17.9254 30.9491,-26.8881 53.783,-26.8881 l 1.017,0.01 c -24.6509,25.6068 -48.8814,51.2203 -72.5627,76.6102 z m 71.5525,-1474.1831 c -22.8339,0 -40.7593,-9.2271 -53.783,-27.6881 -13.017,-18.4611 -19.5255,-44.7594 -19.5255,-78.9085 0,-34.3593 6.5085,-60.4949 19.5255,-78.4204 13.0237,-17.9254 30.9491,-26.8881 53.783,-26.8881 22.8339,0 40.7593,8.9695 53.7763,26.8881 13.0169,17.9255 19.5254,44.0678 19.5254,78.4204 0,34.1491 -6.5085,60.4474 -19.5254,78.9085 -13.017,18.461 -30.9424,27.6881 -53.7763,27.6881 z m 0,-21.1322 c 14.2983,0 25.9865,-6.9288 35.0509,-20.8068 9.0712,-13.8712 13.6,-35.4237 13.6,-64.6644 0,-14.7254 -1.1729,-27.3695 -3.5255,-37.9254 -2.3457,-10.5695 -5.7084,-19.3221 -10.0813,-26.2509 -4.3729,-6.9356 -9.5526,-12.0135 -15.5254,-15.2135 -5.9729,-3.2 -12.4814,-4.8 -19.5255,-4.8 -7.044,0 -13.5525,1.6 -19.5254,4.8 -5.9796,3.2 -11.1525,8.2712 -15.5254,15.2135 -4.3797,6.9288 -7.7356,15.6814 -10.0881,26.2509 -2.3458,10.5559 -3.5255,23.2068 -3.5255,37.9254 0,29.2407 4.5356,50.7864 13.6136,64.6644 9.0644,13.8712 20.7458,20.8068 35.0508,20.8068 z m 0,-66.2576 c -5.3356,0 -9.9796,-1.8712 -13.9254,-5.6 -3.9525,-3.7356 -5.9254,-9.0238 -5.9254,-15.8441 0,-6.617 1.9729,-11.7966 5.9254,-15.5254 3.9458,-3.7356 8.5898,-5.6068 13.9254,-5.6068 5.3356,0 9.9729,1.8712 13.9254,5.6068 3.9458,3.7288 5.9255,8.9084 5.9255,15.5254 0,6.8203 -1.9797,12.1085 -5.9255,15.8441 -3.9525,3.7288 -8.5898,5.6 -13.9254,5.6 z m 192.0678,87.3898 c -22.8339,0 -40.7593,-9.2271 -53.783,-27.6881 -13.017,-18.4611 -19.5255,-44.7594 -19.5255,-78.9085 0,-34.3593 6.5085,-60.4949 19.5255,-78.4204 13.0237,-17.9254 30.9491,-26.8881 53.783,-26.8881 22.8339,0 40.7593,8.9695 53.7763,26.8881 13.0169,17.9255 19.5254,44.0678 19.5254,78.4204 0,34.1491 -6.5085,60.4474 -19.5254,78.9085 -13.017,18.461 -30.9424,27.6881 -53.7763,27.6881 z m 0,-21.1322 c 14.2983,0 25.9865,-6.9288 35.0509,-20.8068 9.0712,-13.8712 13.6,-35.4237 13.6,-64.6644 0,-14.7254 -1.1729,-27.3695 -3.5255,-37.9254 -2.3457,-10.5695 -5.7084,-19.3221 -10.0813,-26.2509 -4.3729,-6.9356 -9.5526,-12.0135 -15.5254,-15.2135 -5.9729,-3.2 -12.4814,-4.8 -19.5255,-4.8 -7.044,0 -13.5525,1.6 -19.5254,4.8 -5.9796,3.2 -11.1525,8.2712 -15.5254,15.2135 -4.3797,6.9288 -7.7356,15.6814 -10.0881,26.2509 -2.3458,10.5559 -3.5255,23.2068 -3.5255,37.9254 0,29.2407 4.5356,50.7864 13.6136,64.6644 9.0644,13.8712 20.7458,20.8068 35.0508,20.8068 z m 0,-66.2576 c -5.3356,0 -9.9796,-1.8712 -13.9254,-5.6 -3.9525,-3.7356 -5.9254,-9.0238 -5.9254,-15.8441 0,-6.617 1.9729,-11.7966 5.9254,-15.5254 3.9458,-3.7356 8.5898,-5.6068 13.9254,-5.6068 5.3356,0 9.9729,1.8712 13.9254,5.6068 3.9458,3.7288 5.9255,8.9084 5.9255,15.5254 0,6.8203 -1.9797,12.1085 -5.9255,15.8441 -3.9525,3.7288 -8.5898,5.6 -13.9254,5.6 z m 192.0678,87.3898 c -22.8339,0 -40.7593,-9.2271 -53.783,-27.6881 -13.017,-18.4611 -19.5255,-44.7594 -19.5255,-78.9085 0,-34.3593 6.5085,-60.4949 19.5255,-78.4204 13.0237,-17.9254 30.9491,-26.8881 53.783,-26.8881 22.8339,0 40.7593,8.9695 53.7763,26.8881 13.0169,17.9255 19.5254,44.0678 19.5254,78.4204 0,34.1491 -6.5085,60.4474 -19.5254,78.9085 -13.017,18.461 -30.9424,27.6881 -53.7763,27.6881 z m 0,-21.1322 c 14.2983,0 25.9865,-6.9288 35.0509,-20.8068 9.0712,-13.8712 13.6,-35.4237 13.6,-64.6644 0,-14.7254 -1.1729,-27.3695 -3.5255,-37.9254 -2.3457,-10.5695 -5.7084,-19.3221 -10.0813,-26.2509 -4.3729,-6.9356 -9.5526,-12.0135 -15.5254,-15.2135 -5.9729,-3.2 -12.4814,-4.8 -19.5255,-4.8 -7.044,0 -13.5525,1.6 -19.5254,4.8 -5.9796,3.2 -11.1525,8.2712 -15.5254,15.2135 -4.3797,6.9288 -7.7356,15.6814 -10.0881,26.2509 -2.3458,10.5559 -3.5255,23.2068 -3.5255,37.9254 0,29.2407 4.5356,50.7864 13.6136,64.6644 9.0644,13.8712 20.7458,20.8068 35.0508,20.8068 z m 0,-66.2576 c -5.3356,0 -9.9796,-1.8712 -13.9254,-5.6 -3.9525,-3.7356 -5.9254,-9.0238 -5.9254,-15.8441 0,-6.617 1.9729,-11.7966 5.9254,-15.5254 3.9458,-3.7356 8.5898,-5.6068 13.9254,-5.6068 5.3356,0 9.9729,1.8712 13.9254,5.6068 3.9458,3.7288 5.9255,8.9084 5.9255,15.5254 0,6.8203 -1.9797,12.1085 -5.9255,15.8441 -3.9525,3.7288 -8.5898,5.6 -13.9254,5.6 z m 192.0678,87.3898 c -22.8339,0 -40.7593,-9.2271 -53.783,-27.6881 -13.017,-18.4611 -19.5255,-44.7594 -19.5255,-78.9085 0,-34.3593 6.5085,-60.4949 19.5255,-78.4204 13.0237,-17.9254 30.9491,-26.8881 53.783,-26.8881 22.8339,0 40.7593,8.9695 53.7763,26.8881 13.0169,17.9255 19.5254,44.0678 19.5254,78.4204 0,34.1491 -6.5085,60.4474 -19.5254,78.9085 -13.017,18.461 -30.9424,27.6881 -53.7763,27.6881 z m 0,-21.1322 c 14.2983,0 25.9865,-6.9288 35.0509,-20.8068 9.0712,-13.8712 13.6,-35.4237 13.6,-64.6644 0,-14.7254 -1.1729,-27.3695 -3.5255,-37.9254 -2.3457,-10.5695 -5.7084,-19.3221 -10.0813,-26.2509 -4.3729,-6.9356 -9.5526,-12.0135 -15.5254,-15.2135 -5.9729,-3.2 -12.4814,-4.8 -19.5255,-4.8 -7.044,0 -13.5525,1.6 -19.5254,4.8 -5.9796,3.2 -11.1525,8.2712 -15.5254,15.2135 -4.3797,6.9288 -7.7356,15.6814 -10.0881,26.2509 -2.3458,10.5559 -3.5255,23.2068 -3.5255,37.9254 0,29.2407 4.5356,50.7864 13.6136,64.6644 9.0644,13.8712 20.7458,20.8068 35.0508,20.8068 z m 0,-66.2576 c -5.3356,0 -9.9796,-1.8712 -13.9254,-5.6 -3.9525,-3.7356 -5.9254,-9.0238 -5.9254,-15.8441 0,-6.617 1.9729,-11.7966 5.9254,-15.5254 3.9458,-3.7356 8.5898,-5.6068 13.9254,-5.6068 5.3356,0 9.9729,1.8712 13.9254,5.6068 3.9458,3.7288 5.9255,8.9084 5.9255,15.5254 0,6.8203 -1.9797,12.1085 -5.9255,15.8441 -3.9525,3.7288 -8.5898,5.6 -13.9254,5.6 z m 127.0848,83.5457 v -21.7695 h 58.8949 v -150.4474 h -45.7695 v -16.9627 c 12.1695,-1.7085 22.3051,-3.7356 30.4136,-6.0882 8.1084,-2.3457 15.4644,-5.3288 22.0813,-8.9559 h 19.5322 v 182.4542 h 13.8034 v 21.7695 z m 134.4135,-21.7695 h 4.1899 v 21.7695 h -4.1899 z m 122.6373,25.6136 c -22.8339,0 -40.7593,-9.2271 -53.783,-27.6881 -13.017,-18.4611 -19.5255,-44.7594 -19.5255,-78.9085 0,-34.3593 6.5085,-60.4949 19.5255,-78.4204 13.0237,-17.9254 30.9491,-26.8881 53.783,-26.8881 22.8339,0 40.7593,8.9695 53.7763,26.8881 13.0169,17.9255 19.5254,44.0678 19.5254,78.4204 0,34.1491 -6.5085,60.4474 -19.5254,78.9085 -13.017,18.461 -30.9424,27.6881 -53.7763,27.6881 z m 0,-21.1322 c 14.2983,0 25.9865,-6.9288 35.0509,-20.8068 9.0712,-13.8712 13.6,-35.4237 13.6,-64.6644 0,-14.7254 -1.1729,-27.3695 -3.5255,-37.9254 -2.3457,-10.5695 -5.7084,-19.3221 -10.0813,-26.2509 -4.3729,-6.9356 -9.5526,-12.0135 -15.5254,-15.2135 -5.9729,-3.2 -12.4814,-4.8 -19.5255,-4.8 -7.044,0 -13.5525,1.6 -19.5254,4.8 -5.9796,3.2 -11.1525,8.2712 -15.5254,15.2135 -4.3797,6.9288 -7.7356,15.6814 -10.0881,26.2509 -2.3458,10.5559 -3.5255,23.2068 -3.5255,37.9254 0,29.2407 4.5356,50.7864 13.6136,64.6644 9.0644,13.8712 20.7458,20.8068 35.0508,20.8068 z m 0,-66.2576 c -5.3356,0 -9.9796,-1.8712 -13.9254,-5.6 -3.9525,-3.7356 -5.9254,-9.0238 -5.9254,-15.8441 0,-6.617 1.9729,-11.7966 5.9254,-15.5254 3.9458,-3.7356 8.5898,-5.6068 13.9254,-5.6068 5.3356,0 9.9729,1.8712 13.9254,5.6068 3.9458,3.7288 5.9255,8.9084 5.9255,15.5254 0,6.8203 -1.9797,12.1085 -5.9255,15.8441 -3.9525,3.7288 -8.5898,5.6 -13.9254,5.6 z m 127.0848,83.5457 v -21.7695 h 40.6034 l 9.4915,21.7695 z m -1279.478,406.217 c -22.8339,0 -40.7593,-9.2271 -53.7831,-27.6881 -2.0271,-2.8814 -3.9051,-5.9526 -5.6067,-9.2068 4.1423,-13.756 8.305,-27.4305 12.5084,-41.0441 2.0949,15.139 6.0407,27.139 11.8373,36.0068 9.0644,13.8712 20.7458,20.8068 35.0509,20.8068 14.2983,0 25.9864,-6.9288 35.0508,-20.8068 9.0712,-13.8712 13.6,-35.4238 13.6,-64.6644 0,-14.7255 -1.1729,-27.3695 -3.5254,-37.9255 -2.3458,-10.5695 -5.7085,-19.322 -10.0814,-26.2508 -4.3728,-6.9356 -9.5525,-12.0136 -15.5254,-15.2136 -5.9729,-3.2 -12.4813,-4.8 -19.5254,-4.8 -3.9729,0 -7.7763,0.5085 -11.417,1.5322 2.5017,-7.5796 5.0577,-15.0373 7.5729,-22.5695 1.2678,-0.061 2.5492,-0.088 3.8441,-0.088 22.8339,0 40.7593,8.9695 53.7763,26.8881 13.0169,17.9255 19.5254,44.0678 19.5254,78.4204 0,34.1492 -6.5085,60.4475 -19.5254,78.9085 -13.017,18.461 -30.9424,27.6881 -53.7763,27.6881 z m 0,-87.3899 c -5.3356,0 -9.9797,-1.8711 -13.9254,-5.6 -3.9526,-3.7355 -5.9255,-9.0237 -5.9255,-15.844 0,-6.617 1.9729,-11.7966 5.9255,-15.5254 3.9457,-3.7356 8.5898,-5.6068 13.9254,-5.6068 5.3356,0 9.9729,1.8712 13.9254,5.6068 3.9458,3.7288 5.9254,8.9084 5.9254,15.5254 0,6.8203 -1.9796,12.1085 -5.9254,15.844 -3.9525,3.7289 -8.5898,5.6 -13.9254,5.6 z m 192.0678,87.3899 c -22.8339,0 -40.7593,-9.2271 -53.7831,-27.6881 -13.0169,-18.4611 -19.5254,-44.7594 -19.5254,-78.9085 0,-34.3594 6.5085,-60.495 19.5254,-78.4204 13.0238,-17.9254 30.9492,-26.8881 53.7831,-26.8881 22.8339,0 40.7593,8.9695 53.7763,26.8881 13.0169,17.9254 19.5254,44.0678 19.5254,78.4204 0,34.1491 -6.5085,60.4474 -19.5254,78.9085 -13.017,18.461 -30.9424,27.6881 -53.7763,27.6881 z m 0,-21.1322 c 14.2983,0 25.9864,-6.9288 35.0508,-20.8068 9.0712,-13.8712 13.6,-35.4237 13.6,-64.6644 0,-14.7254 -1.1728,-27.3695 -3.5254,-37.9254 -2.3458,-10.5695 -5.7085,-19.3221 -10.0813,-26.2509 -4.3729,-6.9356 -9.5526,-12.0135 -15.5255,-15.2135 -5.9729,-3.2 -12.4813,-4.8 -19.5254,-4.8 -7.0441,0 -13.5525,1.6 -19.5254,4.8 -5.9797,3.2 -11.1526,8.2711 -15.5254,15.2135 -4.3797,6.9288 -7.7356,15.6814 -10.0882,26.2509 -2.3457,10.5559 -3.5254,23.2067 -3.5254,37.9254 0,29.2407 4.5356,50.7864 13.6136,64.6644 9.0644,13.8712 20.7457,20.8068 35.0508,20.8068 z m 0,-66.2577 c -5.3356,0 -9.9797,-1.8711 -13.9254,-5.6 -3.9526,-3.7355 -5.9255,-9.0237 -5.9255,-15.844 0,-6.617 1.9729,-11.7966 5.9255,-15.5254 3.9457,-3.7356 8.5898,-5.6068 13.9254,-5.6068 5.3356,0 9.9729,1.8712 13.9254,5.6068 3.9458,3.7288 5.9254,8.9084 5.9254,15.5254 0,6.8203 -1.9796,12.1085 -5.9254,15.844 -3.9525,3.7289 -8.5898,5.6 -13.9254,5.6 z m 192.0678,87.3899 c -22.8339,0 -40.7593,-9.2271 -53.7831,-27.6881 -13.0169,-18.4611 -19.5254,-44.7594 -19.5254,-78.9085 0,-34.3594 6.5085,-60.495 19.5254,-78.4204 13.0238,-17.9254 30.9492,-26.8881 53.7831,-26.8881 22.8339,0 40.7593,8.9695 53.7763,26.8881 13.0169,17.9254 19.5254,44.0678 19.5254,78.4204 0,34.1491 -6.5085,60.4474 -19.5254,78.9085 -13.017,18.461 -30.9424,27.6881 -53.7763,27.6881 z m 0,-21.1322 c 14.2983,0 25.9864,-6.9288 35.0508,-20.8068 9.0712,-13.8712 13.6,-35.4237 13.6,-64.6644 0,-14.7254 -1.1729,-27.3695 -3.5254,-37.9254 -2.3458,-10.5695 -5.7085,-19.3221 -10.0813,-26.2509 -4.3729,-6.9356 -9.5526,-12.0135 -15.5255,-15.2135 -5.9729,-3.2 -12.4813,-4.8 -19.5254,-4.8 -7.0441,0 -13.5525,1.6 -19.5254,4.8 -5.9797,3.2 -11.1526,8.2711 -15.5254,15.2135 -4.3797,6.9288 -7.7356,15.6814 -10.0882,26.2509 -2.3457,10.5559 -3.5254,23.2067 -3.5254,37.9254 0,29.2407 4.5356,50.7864 13.6136,64.6644 9.0644,13.8712 20.7457,20.8068 35.0508,20.8068 z m 0,-66.2577 c -5.3356,0 -9.9797,-1.8711 -13.9254,-5.6 -3.9526,-3.7355 -5.9255,-9.0237 -5.9255,-15.844 0,-6.617 1.9729,-11.7966 5.9255,-15.5254 3.9457,-3.7356 8.5898,-5.6068 13.9254,-5.6068 5.3356,0 9.9729,1.8712 13.9254,5.6068 3.9458,3.7288 5.9254,8.9084 5.9254,15.5254 0,6.8203 -1.9796,12.1085 -5.9254,15.844 -3.9525,3.7289 -8.5898,5.6 -13.9254,5.6 z M 1900.4,2077.51 v -21.7695 h 58.8949 v -150.4474 h -45.7694 v -16.9628 c 12.1694,-1.7084 22.305,-3.7355 30.4135,-6.0881 8.1085,-2.3458 15.4644,-5.3288 22.0814,-8.9559 h 19.5322 v 182.4542 h 53.4508 v 21.7695 z m 257.0509,3.8441 c -22.8339,0 -40.7593,-9.2271 -53.7831,-27.6881 -13.0169,-18.4611 -19.5254,-44.7594 -19.5254,-78.9085 0,-34.3594 6.5085,-60.495 19.5254,-78.4204 13.0238,-17.9254 30.9492,-26.8881 53.7831,-26.8881 22.8339,0 40.7593,8.9695 53.7763,26.8881 13.0169,17.9254 19.5254,44.0678 19.5254,78.4204 0,34.1491 -6.5085,60.4474 -19.5254,78.9085 -13.017,18.461 -30.9424,27.6881 -53.7763,27.6881 z m 0,-21.1322 c 14.2983,0 25.9864,-6.9288 35.0508,-20.8068 9.0712,-13.8712 13.6,-35.4237 13.6,-64.6644 0,-14.7254 -1.1729,-27.3695 -3.5254,-37.9254 -2.3458,-10.5695 -5.7085,-19.3221 -10.0813,-26.2509 -4.3729,-6.9356 -9.5526,-12.0135 -15.5255,-15.2135 -5.9729,-3.2 -12.4813,-4.8 -19.5254,-4.8 -7.0441,0 -13.5525,1.6 -19.5254,4.8 -5.9797,3.2 -11.1526,8.2711 -15.5254,15.2135 -4.3797,6.9288 -7.7356,15.6814 -10.0882,26.2509 -2.3457,10.5559 -3.5254,23.2067 -3.5254,37.9254 0,29.2407 4.5356,50.7864 13.6136,64.6644 9.0644,13.8712 20.7457,20.8068 35.0508,20.8068 z m 0,-66.2577 c -5.3356,0 -9.9797,-1.8711 -13.9254,-5.6 -3.9526,-3.7355 -5.9255,-9.0237 -5.9255,-15.844 0,-6.617 1.9729,-11.7966 5.9255,-15.5254 3.9457,-3.7356 8.5898,-5.6068 13.9254,-5.6068 5.3356,0 9.9729,1.8712 13.9254,5.6068 3.9458,3.7288 5.9254,8.9084 5.9254,15.5254 0,6.8203 -1.9796,12.1085 -5.9254,15.844 -3.9525,3.7289 -8.5898,5.6 -13.9254,5.6 z m 127.0847,83.5458 v -21.7695 h 58.8949 v -150.4474 h -45.7694 v -16.9628 c 12.1694,-1.7084 22.305,-3.7355 30.4135,-6.0881 8.1085,-2.3458 15.4644,-5.3288 22.0814,-8.9559 h 19.5322 v 182.4542 h 13.8034 v 21.7695 z m 134.4136,-21.7695 h 4.1898 v 21.7695 h -4.1898 z m 122.6373,25.6136 c -22.8339,0 -40.7593,-9.2271 -53.7831,-27.6881 -13.0169,-18.4611 -19.5254,-44.7594 -19.5254,-78.9085 0,-34.3594 6.5085,-60.495 19.5254,-78.4204 13.0238,-17.9254 30.9492,-26.8881 53.7831,-26.8881 22.8339,0 40.7593,8.9695 53.7763,26.8881 13.0169,17.9254 19.5254,44.0678 19.5254,78.4204 0,34.1491 -6.5085,60.4474 -19.5254,78.9085 -13.017,18.461 -30.9424,27.6881 -53.7763,27.6881 z m 0,-21.1322 c 14.2983,0 25.9864,-6.9288 35.0508,-20.8068 9.0712,-13.8712 13.6,-35.4237 13.6,-64.6644 0,-14.7254 -1.1729,-27.3695 -3.5254,-37.9254 -2.3458,-10.5695 -5.7085,-19.3221 -10.0813,-26.2509 -4.3729,-6.9356 -9.5526,-12.0135 -15.5255,-15.2135 -5.9729,-3.2 -12.4813,-4.8 -19.5254,-4.8 -7.0441,0 -13.5525,1.6 -19.5254,4.8 -5.9797,3.2 -11.1526,8.2711 -15.5254,15.2135 -4.3797,6.9288 -7.7356,15.6814 -10.0882,26.2509 -2.3457,10.5559 -3.5254,23.2067 -3.5254,37.9254 0,29.2407 4.5356,50.7864 13.6136,64.6644 9.0644,13.8712 20.7457,20.8068 35.0508,20.8068 z m 0,-66.2577 c -5.3356,0 -9.9797,-1.8711 -13.9254,-5.6 -3.9526,-3.7355 -5.9255,-9.0237 -5.9255,-15.844 0,-6.617 1.9729,-11.7966 5.9255,-15.5254 3.9457,-3.7356 8.5898,-5.6068 13.9254,-5.6068 5.3356,0 9.9729,1.8712 13.9254,5.6068 3.9458,3.7288 5.9254,8.9084 5.9254,15.5254 0,6.8203 -1.9796,12.1085 -5.9254,15.844 -3.9525,3.7289 -8.5898,5.6 -13.9254,5.6 z m 192.0678,87.3899 c -22.8339,0 -40.7593,-9.2271 -53.7831,-27.6881 -13.0169,-18.4611 -19.5254,-44.7594 -19.5254,-78.9085 0,-34.3594 6.5085,-60.495 19.5254,-78.4204 13.0238,-17.9254 30.9492,-26.8881 53.7831,-26.8881 22.8339,0 40.7593,8.9695 53.7763,26.8881 13.0169,17.9254 19.5254,44.0678 19.5254,78.4204 0,34.1491 -6.5085,60.4474 -19.5254,78.9085 -13.017,18.461 -30.9424,27.6881 -53.7763,27.6881 z m 0,-21.1322 c 14.2983,0 25.9864,-6.9288 35.0508,-20.8068 9.0712,-13.8712 13.6,-35.4237 13.6,-64.6644 0,-14.7254 -1.1729,-27.3695 -3.5254,-37.9254 -2.3458,-10.5695 -5.7085,-19.3221 -10.0813,-26.2509 -4.3729,-6.9356 -9.5526,-12.0135 -15.5255,-15.2135 -5.9729,-3.2 -12.4813,-4.8 -19.5254,-4.8 -7.0441,0 -13.5525,1.6 -19.5254,4.8 -5.9797,3.2 -11.1526,8.2711 -15.5254,15.2135 -4.3797,6.9288 -7.7356,15.6814 -10.0882,26.2509 -2.3457,10.5559 -3.5254,23.2067 -3.5254,37.9254 0,29.2407 4.5356,50.7864 13.6136,64.6644 9.0644,13.8712 20.7457,20.8068 35.0508,20.8068 z m 0,-66.2577 c -5.3356,0 -9.9797,-1.8711 -13.9254,-5.6 -3.9526,-3.7355 -5.9255,-9.0237 -5.9255,-15.844 0,-6.617 1.9729,-11.7966 5.9255,-15.5254 3.9457,-3.7356 8.5898,-5.6068 13.9254,-5.6068 5.3356,0 9.9729,1.8712 13.9254,5.6068 3.9458,3.7288 5.9254,8.9084 5.9254,15.5254 0,6.8203 -1.9796,12.1085 -5.9254,15.844 -3.9525,3.7289 -8.5898,5.6 -13.9254,5.6 z m 127.0847,83.5458 v -21.7695 h 8.4475 l 7.7152,21.7695 z m -1639.1458,380.6034 h 49.1526 v 21.7695 h -53.9254 c 1.5864,-7.261 3.1593,-14.5424 4.7661,-21.7695 z M 1900.4068,870.39813 v -21.7695 h 58.8949 V 698.18117 h -38.5491 l 12.2847,-20.33898 c 3.9729,-0.84746 7.6068,-1.74915 10.9017,-2.70508 8.1085,-2.3458 15.4644,-5.32885 22.0814,-8.95597 h 19.5322 v 182.45427 h 53.4508 v 21.7695 H 1900.4 Z m 257.0509,3.84406 c -22.8339,0 -40.7594,-9.22711 -53.7831,-27.68813 -13.0169,-18.46102 -19.5254,-44.75933 -19.5254,-78.90848 0,-34.35932 6.5085,-60.49491 19.5254,-78.42034 13.0237,-17.92546 30.9492,-26.88817 53.7831,-26.88817 10.8474,0 20.583,2.02034 29.2067,6.06102 13.1661,20.90851 27.1526,43.38986 41.878,67.36953 1.478,9.70169 2.2102,20.32542 2.2102,31.88474 0,34.14915 -6.5085,60.44746 -19.5254,78.90848 -13.017,18.46101 -30.9424,27.68813 -53.7763,27.68813 z m 0,-21.1322 c 14.2983,0 25.9864,-6.92881 35.0508,-20.80678 9.0712,-13.87119 13.6,-35.42373 13.6,-64.66441 0,-14.72542 -1.1729,-27.36949 -3.5254,-37.92542 -2.3458,-10.56949 -5.7085,-19.32204 -10.0814,-26.25085 -4.3729,-6.93559 -9.5525,-12.01356 -15.5254,-15.21356 -5.9729,-3.2 -12.4813,-4.8 -19.5254,-4.8 -7.0441,0 -13.5526,1.6 -19.5254,4.8 -5.9797,3.2 -11.1526,8.27119 -15.5255,15.21356 -4.3796,6.92881 -7.7356,15.68136 -10.0881,26.25085 -2.3458,10.55593 -3.5254,23.20678 -3.5254,37.92542 0,29.24068 4.5356,50.78644 13.6135,64.66441 9.0644,13.87119 20.7458,20.80678 35.0509,20.80678 z m 0,-66.25763 c -5.3356,0 -9.9797,-1.87118 -13.9255,-5.6 -3.9525,-3.73559 -5.9254,-9.02373 -5.9254,-15.84407 0,-6.61695 1.9729,-11.79661 5.9254,-15.52542 3.9458,-3.73559 8.5899,-5.60678 13.9255,-5.60678 5.3356,0 9.9728,1.87119 13.9254,5.60678 3.9457,3.72881 5.9254,8.90847 5.9254,15.52542 0,6.82034 -1.9797,12.10848 -5.9254,15.84407 -3.9526,3.72882 -8.5898,5.6 -13.9254,5.6 z M 1630.156,1251.0015 h 24.7186 v 21.7695 h -34.7186 c 3.3423,-7.3424 6.6644,-14.5152 10,-21.7695 z m 143.1661,25.6136 c -22.8339,0 -40.7594,-9.2271 -53.7831,-27.6882 -13.0169,-18.461 -19.5254,-44.7593 -19.5254,-78.9084 0,-34.3594 6.5085,-60.4949 19.5254,-78.4204 13.0237,-17.9254 30.9492,-26.8881 53.7831,-26.8881 22.8339,0 40.7593,8.9695 53.7762,26.8881 13.017,17.9255 19.5255,44.0678 19.5255,78.4204 0,34.1491 -6.5085,60.4474 -19.5255,78.9084 -13.0169,18.4611 -30.9423,27.6882 -53.7762,27.6882 z m 0,-21.1322 c 14.2983,0 25.9864,-6.9288 35.0508,-20.8068 9.0712,-13.8712 13.6,-35.4237 13.6,-64.6644 0,-14.7254 -1.1729,-27.3695 -3.5254,-37.9254 -2.3458,-10.5695 -5.7085,-19.3221 -10.0814,-26.2509 -4.3729,-6.9356 -9.5525,-12.0135 -15.5254,-15.2135 -5.9729,-3.2 -12.4813,-4.8 -19.5254,-4.8 -7.0441,0 -13.5526,1.6 -19.5254,4.8 -5.9797,3.2 -11.1526,8.2711 -15.5255,15.2135 -4.3796,6.9288 -7.7356,15.6814 -10.0881,26.2509 -2.3458,10.5559 -3.5254,23.2067 -3.5254,37.9254 0,29.2407 4.5356,50.7864 13.6135,64.6644 9.0644,13.8712 20.7458,20.8068 35.0509,20.8068 z m 0,-66.2577 c -5.3356,0 -9.9797,-1.8711 -13.9255,-5.6 -3.9525,-3.7355 -5.9254,-9.0237 -5.9254,-15.844 0,-6.617 1.9729,-11.7966 5.9254,-15.5254 3.9458,-3.7356 8.5899,-5.6068 13.9255,-5.6068 5.3356,0 9.9728,1.8712 13.9254,5.6068 3.9457,3.7288 5.9254,8.9084 5.9254,15.5254 0,6.8203 -1.9797,12.1085 -5.9254,15.844 -3.9526,3.7289 -8.5898,5.6 -13.9254,5.6 z m 127.0847,83.5458 v -21.7695 h 58.8949 v -150.4474 h -45.7695 v -16.9628 c 12.1695,-1.7084 22.3051,-3.7355 30.4136,-6.0881 8.1085,-2.3457 15.4644,-5.3288 22.0814,-8.9559 h 19.5322 v 182.4542 h 53.4508 v 21.7695 z m 257.0509,3.8441 c -22.8339,0 -40.7594,-9.2271 -53.7831,-27.6882 -13.0169,-18.461 -19.5254,-44.7593 -19.5254,-78.9084 0,-34.3594 6.5085,-60.4949 19.5254,-78.4204 13.0237,-17.9254 30.9492,-26.8881 53.7831,-26.8881 22.8339,0 40.7593,8.9695 53.7762,26.8881 13.017,17.9255 19.5255,44.0678 19.5255,78.4204 0,34.1491 -6.5085,60.4474 -19.5255,78.9084 -13.0169,18.4611 -30.9423,27.6882 -53.7762,27.6882 z m 0,-21.1322 c 14.2983,0 25.9864,-6.9288 35.0508,-20.8068 9.0712,-13.8712 13.6,-35.4237 13.6,-64.6644 0,-14.7254 -1.1729,-27.3695 -3.5254,-37.9254 -2.3458,-10.5695 -5.7085,-19.3221 -10.0814,-26.2509 -4.3729,-6.9356 -9.5525,-12.0135 -15.5254,-15.2135 -5.9729,-3.2 -12.4813,-4.8 -19.5254,-4.8 -7.0441,0 -13.5526,1.6 -19.5254,4.8 -5.9797,3.2 -11.1526,8.2711 -15.5255,15.2135 -4.3796,6.9288 -7.7356,15.6814 -10.0881,26.2509 -2.3458,10.5559 -3.5254,23.2067 -3.5254,37.9254 0,29.2407 4.5356,50.7864 13.6135,64.6644 9.0644,13.8712 20.7458,20.8068 35.0509,20.8068 z m 0,-66.2577 c -5.3356,0 -9.9797,-1.8711 -13.9255,-5.6 -3.9525,-3.7355 -5.9254,-9.0237 -5.9254,-15.844 0,-6.617 1.9729,-11.7966 5.9254,-15.5254 3.9458,-3.7356 8.5899,-5.6068 13.9255,-5.6068 5.3356,0 9.9728,1.8712 13.9254,5.6068 3.9457,3.7288 5.9254,8.9084 5.9254,15.5254 0,6.8203 -1.9797,12.1085 -5.9254,15.844 -3.9526,3.7289 -8.5898,5.6 -13.9254,5.6 z m 127.0847,83.5458 v -21.7695 h 58.8949 v -150.4474 h -45.7695 v -16.9628 c 12.1695,-1.7084 22.3051,-3.7355 30.4136,-6.0881 8.1085,-2.3457 15.4644,-5.3288 22.0814,-8.9559 h 19.5322 v 182.4542 h 13.8033 v 21.7695 z m 134.4136,-21.7695 h 4.1898 v 21.7695 h -4.1898 z m 111.8034,24.8678 c -17.7424,-2.5356 -32.0611,-11.5186 -42.9492,-26.9491 -13.0169,-18.4611 -19.5254,-44.7594 -19.5254,-78.9085 0,-4.7322 0.122,-9.3153 0.3729,-13.7356 9.2813,17.5051 18.6169,35.2407 27.9864,53.2542 2.2576,10.1288 5.5593,18.5085 9.8983,25.1458 2.5627,3.9254 5.3559,7.2949 8.339,10.1153 l 15.878,31.0847 z"
   id="path43"
   style="fill:#00ff00;fill-rule:nonzero;stroke-width:0.67796612" /><rect
   class="fil2"
   x="0"
   y="-3.8595061"
   width="4124.4204"
   height="4124.4204"
   id="rect45"
   style="fill:none;stroke-width:0.67796612" /><g
   transform="matrix(0.67796611,0,0,0.67796611,0,-3.85279)"
   id="g49">
   <path
   class="fil3"
   d="m 1608.17,5357.39 c 0,-2684.05 1433.59,-4644.71 1433.59,-4644.71 0,0 208.82,294.89 473.82,768.11 v 2234.79 c -651.79,0 -2024.24,1828.85 -1907.42,1641.81 z M 1670.9,5197.6 C 1993.89,4812.79 2906.06,3737.44 3454.75,3659.39 V 1496.5 C 3271.39,1170.14 3116.71,931.85 3041.34,819.59 2795.82,1183.91 1719.49,2907.55 1670.9,5197.6 Z"
   id="path47"
   style="fill:#000000" />
  </g><g
   transform="matrix(0.67796611,0,0,0.67796611,0,-3.85279)"
   id="g53">
   <path
   class="fil3"
   d="m 4606.09,4954.98 -92.55,44.26 c 0,0 -327.7,-1214.81 -945.65,-1280.7 V 1575.17 c 454.33,829.42 1038.2,2137.02 1038.2,3379.81 z M 3628.72,3666.92 c 519.05,108.71 826.87,946.02 916.02,1225.68 C 4535.4,4297.98 4393.98,3690.09 4200.08,3129.78 4031.94,2643.9 3824.24,2193.37 3628.72,1817.75 Z"
   id="path51"
   style="fill:#000000" />
  </g><g
   transform="matrix(0.67796611,0,0,0.67796611,0,-3.85279)"
   id="g155">
   <polygon
   class="fil4"
   points="1050.7,2312.18 1058.65,2321.23 1066.33,2330.9 1073.71,2341.18 1080.81,2352.1 1087.61,2363.61 1094.04,2375.85 1100.1,2388.85 1105.8,2402.58 1111.14,2417.06 1116.13,2432.29 1120.74,2448.25 1125.01,2464.96 1126.95,2473.57 1128.76,2482.43 1130.45,2491.51 1132.02,2500.84 1133.47,2510.39 1134.78,2520.17 1135.99,2530.2 1137.05,2540.46 1138,2550.96 1138.81,2561.69 1139.52,2572.66 1140.09,2583.87 1140.53,2595.3 1140.86,2607 1141.04,2618.92 1141.1,2631.09 1141.1,2960.61 1141.04,2972.78 1140.86,2984.7 1140.53,2996.39 1140.09,3007.86 1139.52,3019.08 1138.81,3030.08 1138,3040.84 1137.05,3051.37 1135.99,3061.67 1134.78,3071.73 1133.47,3081.56 1132.02,3091.15 1130.45,3100.5 1128.76,3109.63 1126.95,3118.52 1125.01,3127.19 1120.74,3143.89 1116.13,3159.87 1111.14,3175.08 1105.8,3189.56 1100.1,3203.29 1094.04,3216.29 1087.61,3228.54 1080.81,3240.04 1073.71,3250.87 1066.33,3261.07 1058.65,3270.67 1050.7,3279.64 1042.46,3288 1033.93,3295.75 1025.12,3302.88 1016,3309.39 1006.75,3315.4 997.35,3321.03 987.78,3326.25 978.07,3331.08 968.19,3335.52 958.16,3339.54 947.96,3343.14 937.58,3346.34 927.18,3349.15 916.73,3351.68 906.19,3353.91 895.59,3355.85 884.95,3357.48 874.23,3358.82 863.45,3359.87 852.59,3360.61 841.84,3361.16 831.14,3361.63 820.53,3362.02 809.98,3362.33 799.55,3362.57 789.18,3362.74 778.91,3362.84 768.75,3362.87 590.16,3362.87 453.44,3320.57 633.83,3320.57 644.1,3320.53 654.47,3320.44 664.94,3320.27 675.49,3320.02 686.14,3319.71 696.86,3319.32 707.66,3318.84 718.53,3318.28 729.49,3317.53 740.38,3316.48 751.21,3315.13 761.96,3313.48 772.67,3311.52 783.3,3309.27 793.86,3306.71 804.38,3303.86 814.85,3300.64 825.16,3297 835.29,3292.94 845.27,3288.46 855.08,3283.58 864.74,3278.3 874.24,3272.62 883.58,3266.55 892.79,3259.97 901.7,3252.76 910.31,3244.94 918.64,3236.5 926.67,3227.43 934.42,3217.73 941.88,3207.43 949.05,3196.49 955.92,3184.87 962.4,3172.5 968.53,3159.38 974.29,3145.5 979.69,3130.87 984.73,3115.51 989.39,3099.37 993.7,3082.5 995.65,3073.75 997.48,3064.77 999.19,3055.55 1000.78,3046.09 1002.24,3036.41 1003.56,3026.48 1004.78,3016.32 1005.85,3005.92 1006.81,2995.28 1007.64,2984.42 1008.34,2973.31 1008.93,2961.97 1009.37,2950.39 1009.69,2938.57 1009.89,2926.53 1009.95,2914.24 1009.95,2581.39 1009.89,2569.1 1009.69,2557.05 1009.37,2545.25 1008.93,2533.69 1008.34,2522.38 1007.64,2511.29 1006.81,2500.45 1005.85,2489.84 1004.78,2479.49 1003.56,2469.35 1002.24,2459.47 1000.78,2449.82 999.19,2440.41 997.48,2431.23 995.65,2422.29 993.7,2413.59 989.39,2396.71 984.73,2380.58 979.69,2365.2 974.29,2350.58 968.53,2336.71 962.4,2323.58 955.92,2311.2 949.05,2299.58 941.88,2288.56 934.42,2278.17 926.67,2268.4 918.64,2259.26 910.31,2250.76 901.7,2242.89 892.79,2235.66 883.58,2229.08 874.24,2223 864.74,2217.35 855.08,2212.09 845.27,2207.24 835.29,2202.78 968.19,2256.27 978.07,2260.67 987.78,2265.48 997.35,2270.69 1006.75,2276.28 1016,2282.29 1025.12,2288.82 1033.93,2295.97 1042.46,2303.76 "
   id="polygon55"
   style="fill:#434242" />
   <polygon
   class="fil4"
   points="762.17,2354.36 627.19,2301.87 671.37,2301.87 682.86,2302.05 693.83,2302.61 704.27,2303.54 714.18,2304.85 723.57,2306.54 732.47,2308.64 740.86,2311.12 748.75,2314 882.51,2366.37 874.71,2363.52 866.39,2361.06 857.59,2358.98 848.3,2357.32 838.48,2356.02 828.14,2355.1 817.28,2354.54 805.91,2354.36 "
   id="polygon57"
   style="fill:#434242" />
   <polygon
   class="fil4"
   points="762.17,3242.76 627.19,3199.24 627.19,2301.87 762.17,2354.36 "
   id="polygon59"
   style="fill:#434242" />
   <polygon
   class="fil4"
   points="1826.89,3362.87 1702.67,3320.57 1490.91,2175.05 1617.26,2228.81 "
   id="polygon61"
   style="fill:#434242" />
   <polygon
   class="fil4"
   points="1653.06,3362.87 1527.09,3320.57 1702.67,3320.57 1826.89,3362.87 "
   id="polygon63"
   style="fill:#434242" />
   <polygon
   class="fil4"
   points="1414.65,3159.59 1286.26,3115.23 1495.49,3115.23 1621.78,3159.59 "
   id="polygon65"
   style="fill:#434242" />
   <polygon
   class="fil4"
   points="1384.73,3362.87 1256.04,3320.57 1286.26,3115.23 1414.65,3159.59 "
   id="polygon67"
   style="fill:#434242" />
   <polygon
   class="fil4"
   points="1210.23,3362.87 1079.78,3320.57 1256.04,3320.57 1384.73,3362.87 "
   id="polygon69"
   style="fill:#434242" />
   <polygon
   class="fil4"
   points="1514.82,2465.18 1387.45,2413.81 1395,2413.81 1522.3,2465.18 "
   id="polygon71"
   style="fill:#434242" />
   <polygon
   class="fil4"
   points="1434.59,3030.18 1306.4,2984.52 1387.45,2413.81 1514.82,2465.18 "
   id="polygon73"
   style="fill:#434242" />
   <polygon
   class="fil4"
   points="1858.85,2364.34 1734.94,2311.95 1919.45,2311.95 2041.51,2364.34 "
   id="polygon75"
   style="fill:#434242" />
   <polygon
   class="fil4"
   points="2395.28,2364.34 2276.8,2311.95 2276.8,2175.05 2395.28,2228.81 "
   id="polygon77"
   style="fill:#434242" />
   <polygon
   class="fil4"
   points="2213.3,2364.34 2092.98,2311.95 2276.8,2311.95 2395.28,2364.34 "
   id="polygon79"
   style="fill:#434242" />
   <polygon
   class="fil4"
   points="2213.3,3362.87 2092.98,3320.57 2092.98,2311.95 2213.3,2364.34 "
   id="polygon81"
   style="fill:#434242" />
   <polygon
   class="fil4"
   points="2041.51,3362.87 1919.45,3320.57 2092.98,3320.57 2213.3,3362.87 "
   id="polygon83"
   style="fill:#434242" />
   <polygon
   class="fil4"
   points="3043.9,3362.87 2931.97,3320.57 2720.21,2175.05 2834.27,2228.81 "
   id="polygon85"
   style="fill:#434242" />
   <polygon
   class="fil4"
   points="2870.07,3362.87 2756.38,3320.57 2931.97,3320.57 3043.9,3362.87 "
   id="polygon87"
   style="fill:#434242" />
   <polygon
   class="fil4"
   points="2631.66,3159.59 2515.56,3115.23 2724.79,3115.23 2838.79,3159.59 "
   id="polygon89"
   style="fill:#434242" />
   <polygon
   class="fil4"
   points="2601.74,3362.87 2485.34,3320.57 2515.56,3115.23 2631.66,3159.59 "
   id="polygon91"
   style="fill:#434242" />
   <polygon
   class="fil4"
   points="2427.24,3362.87 2309.07,3320.57 2485.34,3320.57 2601.74,3362.87 "
   id="polygon93"
   style="fill:#434242" />
   <polygon
   class="fil4"
   points="2731.83,2465.18 2616.74,2413.81 2624.3,2413.81 2739.31,2465.18 "
   id="polygon95"
   style="fill:#434242" />
   <polygon
   class="fil4"
   points="2651.59,3030.18 2535.7,2984.52 2616.74,2413.81 2731.83,2465.18 "
   id="polygon97"
   style="fill:#434242" />
   <polygon
   class="fil4"
   points="3366.61,2364.34 3257.93,2311.95 3442.45,2311.95 3549.27,2364.34 "
   id="polygon99"
   style="fill:#434242" />
   <polygon
   class="fil4"
   points="3903.04,2364.34 3799.79,2311.95 3799.79,2175.05 3903.04,2228.81 "
   id="polygon101"
   style="fill:#434242" />
   <polygon
   class="fil4"
   points="3721.07,2364.34 3615.97,2311.95 3799.79,2311.95 3903.04,2364.34 "
   id="polygon103"
   style="fill:#434242" />
   <polygon
   class="fil4"
   points="3721.07,3362.87 3615.97,3320.57 3615.97,2311.95 3721.07,2364.34 "
   id="polygon105"
   style="fill:#434242" />
   <polygon
   class="fil4"
   points="3549.27,3362.87 3442.45,3320.57 3615.97,3320.57 3721.07,3362.87 "
   id="polygon107"
   style="fill:#434242" />
   <polygon
   class="fil4"
   points="4489.12,2331.71 4495.82,2340.99 4502.2,2350.82 4508.23,2361.23 4513.9,2372.17 4519.23,2383.71 4524.21,2395.79 4528.82,2408.44 4533.08,2421.67 4537,2435.55 4540.38,2450.15 4543.27,2465.47 4545.63,2481.51 4547.47,2498.27 4548.78,2515.76 4549.59,2533.96 4549.86,2552.89 4549.86,2581.45 4549.71,2597.45 4549.26,2613.07 4548.54,2628.33 4547.51,2643.18 4546.21,2657.68 4544.59,2671.8 4542.69,2685.54 4540.5,2698.89 4538.02,2711.88 4535.24,2724.49 4532.18,2736.72 4528.82,2748.57 4525.17,2760.05 4521.21,2771.14 4516.99,2781.86 4512.47,2792.22 4502.65,2811.82 4491.72,2830.02 4479.7,2846.81 4466.57,2862.19 4452.32,2876.13 4436.98,2888.66 4420.54,2899.75 4402.99,2909.38 4304.79,2862.51 4322.51,2852.76 4339.12,2841.57 4354.62,2828.91 4369,2814.82 4382.27,2799.3 4394.41,2782.34 4405.44,2763.95 4415.36,2744.14 4419.94,2733.69 4424.21,2722.86 4428.2,2711.66 4431.88,2700.06 4435.28,2688.09 4438.37,2675.74 4441.18,2663 4443.69,2649.89 4445.9,2636.39 4447.81,2622.51 4449.44,2608.26 4450.77,2593.61 4451.8,2578.6 4452.53,2563.2 4452.98,2547.41 4453.13,2531.24 4453.13,2502.41 4452.86,2483.28 4452.06,2464.9 4450.73,2447.23 4448.87,2430.29 4446.48,2414.1 4443.56,2398.62 4440.15,2383.88 4436.19,2369.86 4431.88,2356.5 4427.22,2343.71 4422.2,2331.51 4416.82,2319.87 4411.09,2308.81 4404.99,2298.29 4398.56,2288.37 4391.78,2278.99 4384.63,2270.2 4377.27,2261.9 4369.66,2254.07 4361.81,2246.71 4353.74,2239.81 4345.39,2233.4 4336.79,2227.46 4327.92,2221.98 4318.94,2216.98 4417,2270.32 4425.89,2275.27 4434.67,2280.69 4443.19,2286.58 4451.45,2292.92 4459.45,2299.75 4467.22,2307.04 4474.75,2314.79 4482.04,2323.01 "
   id="polygon109"
   style="fill:#434242" />
   <polygon
   class="fil4"
   points="4584.98,3362.87 4488.62,3320.57 4304.79,2862.51 4402.99,2909.38 "
   id="polygon111"
   style="fill:#434242" />
   <polygon
   class="fil4"
   points="4402.99,3362.87 4304.79,3320.57 4488.62,3320.57 4584.98,3362.87 "
   id="polygon113"
   style="fill:#434242" />
   <polygon
   class="fil4"
   points="4187.92,2938.62 4087.54,2892.03 4152.55,2892.03 4252.29,2938.62 "
   id="polygon115"
   style="fill:#434242" />
   <polygon
   class="fil4"
   points="4187.92,3362.87 4087.54,3320.57 4087.54,2892.03 4187.92,2938.62 "
   id="polygon117"
   style="fill:#434242" />
   <polygon
   class="fil4"
   points="4019.31,3362.87 3917.23,3320.57 4087.54,3320.57 4187.92,3362.87 "
   id="polygon119"
   style="fill:#434242" />
   <polygon
   class="fil4"
   points="4236.37,2354.97 4225.32,2354.51 4213.77,2354.36 4187.92,2354.36 4087.54,2301.87 4113.64,2301.87 4125.32,2302.02 4136.48,2302.48 4147.14,2303.25 4157.27,2304.33 4166.92,2305.74 4176.06,2307.47 4184.71,2309.54 4192.85,2311.95 4200.54,2314.61 4207.84,2317.6 4214.73,2320.95 4313.83,2373.26 4307.01,2369.93 4299.79,2366.98 4292.17,2364.34 4284.12,2361.95 4275.55,2359.91 4266.51,2358.19 4256.96,2356.79 4246.92,2355.72 "
   id="polygon121"
   style="fill:#434242" />
   <polygon
   class="fil4"
   points="4187.92,2814.42 4087.54,2766.58 4087.54,2301.87 4187.92,2354.36 "
   id="polygon123"
   style="fill:#434242" />
   <polygon
   class="fil4"
   points="5135.25,2364.34 5044.43,2311.95 5044.43,2175.05 5135.25,2228.81 "
   id="polygon125"
   style="fill:#434242" />
   <polygon
   class="fil4"
   points="4887.09,2364.34 4793.77,2311.95 5044.43,2311.95 5135.25,2364.34 "
   id="polygon127"
   style="fill:#434242" />
   <polygon
   class="fil4"
   points="4887.09,2703.6 4793.77,2654.64 4793.77,2311.95 4887.09,2364.34 "
   id="polygon129"
   style="fill:#434242" />
   <polygon
   class="fil4"
   points="5078.82,2838.9 4987.44,2791.3 4987.44,2654.64 5078.82,2703.6 "
   id="polygon131"
   style="fill:#434242" />
   <polygon
   class="fil4"
   points="4887.09,2838.9 4793.77,2791.3 4987.44,2791.3 5078.82,2838.9 "
   id="polygon133"
   style="fill:#434242" />
   <polygon
   class="fil4"
   points="4887.09,3227.36 4793.77,3183.68 4793.77,2791.3 4887.09,2838.9 "
   id="polygon135"
   style="fill:#434242" />
   <polygon
   class="fil4"
   points="5142.05,3362.87 5051.31,3320.57 5051.31,3183.68 5142.05,3227.36 "
   id="polygon137"
   style="fill:#434242" />
   <polygon
   class="fil4"
   points="4715.07,3362.87 4620.02,3320.57 5051.31,3320.57 5142.05,3362.87 "
   id="polygon139"
   style="fill:#434242" />
   <polygon
   class="fil4"
   points="5438.26,2724.23 5350.51,2675.47 5350.51,2175.05 5438.26,2228.81 "
   id="polygon141"
   style="fill:#434242" />
   <polygon
   class="fil4"
   points="5592.13,2760.72 5505.94,2712.33 5727.31,2175.05 5811.29,2228.81 "
   id="polygon143"
   style="fill:#434242" />
   <polygon
   class="fil4"
   points="5835.77,3362.87 5752.03,3320.57 5505.94,2712.33 5592.13,2760.72 "
   id="polygon145"
   style="fill:#434242" />
   <polygon
   class="fil4"
   points="5651.98,3362.87 5566.39,3320.57 5752.03,3320.57 5835.77,3362.87 "
   id="polygon147"
   style="fill:#434242" />
   <polygon
   class="fil4"
   points="5438.26,2823.04 5350.51,2775.28 5355.78,2775.28 5443.48,2823.04 "
   id="polygon149"
   style="fill:#434242" />
   <polygon
   class="fil4"
   points="5438.26,3362.87 5350.51,3320.57 5350.51,2775.28 5438.26,2823.04 "
   id="polygon151"
   style="fill:#434242" />
   <polygon
   class="fil4"
   points="5266.25,3362.87 5176.76,3320.57 5350.51,3320.57 5438.26,3362.87 "
   id="polygon153"
   style="fill:#434242" />
  </g><path
   class="fil5"
   d="m 307.41695,1470.7574 h 122.29831 c 18.4678,0 37.71526,0.617 57.41695,1.5526 19.87119,1.0779 39.2678,4.3457 58.20339,9.7762 19.08475,5.5865 36.9356,13.9661 53.7017,25.3017 16.91525,11.3289 31.66102,27.3153 44.38644,47.8034 12.72542,20.3322 22.81356,46.0949 30.26441,77.2949 7.29491,31.0373 11.02373,68.9017 11.02373,113.7628 v 225.661 c 0,44.8474 -3.72882,82.8745 -11.02373,114.0745 -7.45085,31.1865 -17.53899,56.956 -30.26441,77.2814 -12.72542,20.3322 -27.47119,36.1627 -44.38644,47.4983 -16.75932,11.3288 -34.61017,19.8644 -53.7017,25.3017 -18.94237,5.4305 -38.3322,8.6847 -58.20339,9.7763 -19.70847,1.0915 -38.94915,1.5525 -57.41695,1.5525 H 307.41695 V 1470.771 Z m 147.74238,694.3661 c 21.2678,0 38.64407,-2.7932 52.46102,-8.2237 13.81017,-5.4373 24.67118,-15.0509 32.74576,-28.8678 8.0678,-13.8102 13.66102,-32.5898 16.60339,-56.3322 3.09831,-23.9051 4.5017,-53.8576 4.5017,-90.3322 v -241.0237 c 0,-36.3187 -1.40339,-66.4271 -4.5017,-90.1695 -2.94237,-23.7492 -8.53559,-42.6848 -16.60339,-56.339 -8.07458,-13.817 -18.94237,-23.4373 -32.74576,-28.8678 -13.81695,-5.5864 -31.2,-8.2237 -52.46102,-8.2237 h -29.95254 v 608.3864 h 29.95254 z m 420.1356,-694.3661 h 135.48477 l 143.5661,776.6237 h -119.0373 l -21.4237,-139.2135 H 872.04069 l -20.48813,139.2135 H 732.05425 l 143.24746,-776.6237 z m 124.93557,548.7865 -54.47455,-386.9221 h -5.12543 l -54.94237,386.9221 z m 301.0848,-455.9797 h -125.0916 v -92.8068 h 367.3628 v 92.8068 h -124.6238 v 683.8102 h -117.6474 z m 407.4034,-92.8068 h 135.4847 l 143.5661,776.6237 h -119.0373 l -21.4237,-139.2135 h -141.8441 l -20.4881,139.2135 H 1565.478 l 143.2475,-776.6237 z m 124.9356,548.7865 -54.4746,-386.9221 h -5.1254 l -54.9424,386.9221 z m 500.2034,-455.9797 h -125.0916 v -92.8068 h 367.3628 v 92.8068 h -124.6238 v 683.8102 h -117.6474 z m 321.8847,-92.8068 h 127.7221 c 14.5898,0 30.5762,0.617 47.9593,1.8577 17.383,1.2474 34.9152,4.1898 52.3051,8.8542 17.383,4.6508 34.2983,11.7966 50.4406,21.1119 16.2916,9.4644 30.5695,22.3457 43.295,38.644 12.5694,16.4475 22.6576,36.9288 30.1084,61.6136 7.6068,24.678 11.4848,54.6305 11.4848,89.8644 v 19.5525 c 0,59.139 -8.5356,107.2543 -25.6068,144.339 -16.9153,37.0983 -41.9051,63.9458 -74.9627,80.2441 l 124.6305,310.5559 h -124.6305 l -103.2068,-290.5356 h -44.0746 v 290.5356 H 2655.7424 V 1470.771 Z m 133.1593,401.0373 c 20.6373,0 38.0272,-2.3254 52.2983,-6.8271 14.278,-4.4949 25.7695,-12.1017 34.6102,-22.9627 8.6915,-10.7119 15.0509,-24.9966 19.0848,-42.678 3.8847,-17.6949 5.8983,-39.7356 5.8983,-65.8101 v -61.3085 c 0,-20.0204 -1.8577,-37.2407 -5.4305,-51.8373 -3.7289,-14.5898 -9.7763,-26.5356 -18.4678,-35.8509 -8.6916,-9.4711 -20.0204,-16.4542 -34.2983,-20.9491 -14.278,-4.6576 -32.1289,-6.8271 -53.7017,-6.8271 H 2771.2 v 315.0576 h 17.695 z m 343.3085,-401.0373 h 287.7356 v 92.8068 h -169.9457 v 232.339 h 131.3084 v 92.6508 h -131.3084 v 266.0204 h 174.6033 v 92.8067 h -292.4 v -776.6237 z m 377.4509,0 h 117.7966 v 339.2678 h 3.5729 l 134.5559,-339.2678 h 117.3288 l -150.0813,364.2509 166.8406,412.3661 H 3773.817 l -142.7864,-369.6881 h -3.5729 v 369.6881 h -117.7966 v -776.6237 z"
   id="path157"
   style="fill:url(#id1);fill-rule:nonzero;stroke-width:0.67796612" />
</svg>